<svg xmlns="http://www.w3.org/2000/svg" viewBox="0 0 512 512" role="img" aria-labelledby="title"><title id="title">trpcgo</title><rect width="512" height="512" fill="#0b1a33"/><g transform="translate(46.7 143.4) scale(0.428)"><g transform="translate(0 528) scale(.1 -.1)"><path fill="#0898f0" d="M8216 4911 c-3 -4 -38 -11 -78 -14 -156 -14 -381 -86 -509 -162 -355
-212 -584 -561 -676 -1030 -28 -142 -25 -485 5 -624 116 -534 420 -894 887
-1050 154 -51 257 -66 470 -65 329 0 568 62 777 200 120 80 258 231 317 347
24 46 24 46 -2 81 -17 22 -75 61 -169 114 -267 149 -267 149 -343 71 -241
-247 -610 -313 -898 -161 -197 103 -347 333 -388 592 -19 125 -6 396 23 500
111 384 361 599 696 600 211 0 439 -100 558 -246 45 -54 89 -71 137 -51 66 28
362 201 384 225 31 33 30 41 -19 122 -99 164 -273 326 -441 408 -138 67 -372
132 -478 132 -21 0 -41 5 -44 10 -8 12 -202 14 -209 1z M2213 4886 c-17 -8
-36 -23 -42 -35 -8 -14 -11 -436 -11 -1415 0 -1396 0 -1396 29 -1428 29 -33
29 -33 216 -36 114 -2 191 1 198 7 7 5 34 52 60 103 26 51 67 120 92 153 45
60 45 60 45 386 0 298 2 327 18 342 14 13 47 16 185 16 237 2 232 4 311 -127
97 -160 75 -146 189 -117 168 42 422 52 549 20 14 -4 28 -2 32 3 3 5 -37 81
-89 168 -52 88 -95 164 -95 171 0 6 24 24 53 41 200 113 348 307 408 537 33
123 38 385 10 521 -77 375 -318 595 -744 681 -116 23 -1364 31 -1414 9z m1264
-593 c204 -67 293 -206 272 -425 -18 -193 -158 -320 -387 -355 -128 -19 -520
-15 -545 6 -26 21 -26 755 1 784 26 29 564 21 659 -10z M4801 4883 c-64 -32
-61 36 -61 -1274 0 -1191 0 -1191 54 -1250 29 -33 75 -97 101 -144 47 -85 47
-85 101 -85 54 0 54 0 78 49 39 76 141 205 217 274 69 62 69 62 69 279 0 215
0 218 23 232 18 12 88 15 367 19 334 4 348 5 449 31 440 113 691 453 691 938
0 497 -252 815 -730 920 -135 30 -1302 40 -1359 11z m1199 -590 c342 -101 364
-594 35 -744 -83 -37 -186 -49 -437 -49 -185 0 -199 1 -218 20 -19 19 -20 33
-20 394 0 375 0 375 23 391 35 26 524 16 617 -12z M911 4855 c-75 -21 -138
-69 -175 -135 -31 -55 -31 -55 -36 -300 l-5 -245 -110 -5 c-127 -6 -157 -18
-197 -75 -26 -39 -27 -44 -28 -174 0 -129 1 -135 26 -168 45 -59 66 -67 193
-73 l116 -5 5 -580 c6 -621 5 -606 60 -744 65 -166 206 -288 405 -351 137 -43
505 -38 611 9 64 29 74 60 74 239 0 242 -16 260 -204 232 -156 -22 -252 1
-314 76 -52 62 -53 78 -50 619 l3 500 200 5 c290 7 305 19 305 243 0 227 -16
240 -305 247 l-200 5 -5 245 c-5 240 -6 246 -32 295 -63 121 -200 177 -337
140z"/><path fill="#14bfc8" d="M3540 2616 c-401 -91 -709 -376 -838 -776 -43 -131 -52 -193 -52
-347 0 -443 249 -834 652 -1023 82 -38 257 -90 304 -90 12 0 26 -5 29 -10 8
-12 342 -14 349 -1 3 4 28 11 56 15 67 9 213 57 292 97 332 167 542 465 587
834 22 184 10 289 -37 314 -35 19 -976 15 -1012 -4 -43 -22 -52 -67 -48 -232
5 -206 -15 -193 300 -193 205 0 250 -2 254 -14 19 -49 -141 -213 -266 -275
-444 -218 -960 90 -963 574 -2 375 283 665 655 665 191 0 331 -56 474 -191 65
-62 91 -80 108 -77 45 9 395 198 401 218 8 26 -12 62 -82 145 -136 162 -364
304 -578 361 -148 40 -431 44 -585 10z M5905 2620 c-794 -168 -1155 -1096
-693 -1783 149 -220 452 -416 701 -452 26 -4 50 -11 53 -16 7 -12 341 -12 348
0 3 4 26 11 52 15 70 9 251 72 324 113 398 220 629 664 582 1118 -46 442 -323
802 -739 961 -170 64 -440 83 -628 44z m400 -486 c400 -95 605 -549 419 -932
-238 -491 -950 -479 -1173 21 -147 327 -12 710 303 862 150 72 290 87 451 49z"/></g></g></svg>
